<svg width="67" height="91" viewBox="0 0 67 91" fill="none" xmlns="http://www.w3.org/2000/svg">
<path d="M58.2689 45.4533C58.2689 52.1245 55.7211 57.8202 50.8727 62.0587C47.4322 65.068 42.1328 69.2858 42.1328 73.7454V77.4349H25.9967V73.7454C25.9967 69.2392 20.6765 65.0128 17.2568 62.0587C12.5179 57.9687 9.8606 51.8862 9.8606 45.4533V45.3169C9.88141 39.445 12.4509 33.8212 17.0039 29.6823C21.557 25.5434 27.7206 23.2284 34.1393 23.2464C40.5579 23.2645 46.7059 25.6142 51.231 29.7787C55.756 33.9432 58.2876 39.5814 58.2689 45.4533Z" fill="#EFC636"/>
<path d="M42.1326 77.953C41.9824 77.953 41.8384 77.8984 41.7322 77.8013C41.6261 77.7041 41.5664 77.5724 41.5664 77.435V73.7448C41.5664 69.407 46.2429 65.3575 49.6577 62.4007C49.9408 62.1552 50.2165 61.9173 50.4811 61.6851C55.2047 57.5539 57.7016 51.9413 57.7016 45.4536C57.7016 33.3286 47.3192 23.8305 34.0651 23.8305H33.9983C27.7608 23.8369 21.7798 26.1023 17.363 30.1315C12.9462 34.1607 10.453 39.6258 10.4284 45.3319V45.4528C10.4284 51.8063 13.0591 57.7217 17.6463 61.683C17.8786 61.8838 18.12 62.0905 18.3678 62.3026C21.8266 65.2651 26.5636 69.3222 26.5636 73.745V77.435C26.5636 77.5724 26.5039 77.7041 26.3978 77.8013C26.2916 77.8984 26.1476 77.953 25.9974 77.953C25.8473 77.953 25.7032 77.8984 25.5971 77.8013C25.4909 77.7041 25.4312 77.5724 25.4312 77.435V73.7448C25.4312 69.7713 20.9018 65.8917 17.5938 63.0578C17.3449 62.8448 17.1032 62.6373 16.8689 62.4354C12.0564 58.2794 9.29608 52.0896 9.29608 45.4529V45.3286C9.33383 32.8901 20.4092 22.7939 33.9966 22.7939H34.0666C40.6013 22.7628 46.8819 25.1078 51.5267 29.3129C56.1715 33.5181 58.8 39.2389 58.8339 45.217C58.8344 45.2958 58.8344 45.3747 58.8339 45.4536C58.8339 52.231 56.2161 58.1026 51.2637 62.4339C50.9978 62.6664 50.721 62.9062 50.436 63.1529C47.171 65.9804 42.6982 69.8528 42.6982 73.7448V77.435C42.6982 77.5724 42.6385 77.7041 42.5324 77.8013C42.4262 77.8984 42.2822 77.953 42.132 77.953H42.1326Z" fill="#55508B"/>
<path d="M39.4436 84.5991H28.6862C28.4359 84.5991 28.1959 84.5082 28.0189 84.3463C27.842 84.1844 27.7426 83.9648 27.7426 83.7359C27.7426 83.5069 27.842 83.2873 28.0189 83.1255C28.1959 82.9636 28.4359 82.8726 28.6862 82.8726H39.4436C39.6939 82.8726 39.9339 82.9636 40.1108 83.1255C40.2878 83.2873 40.3872 83.5069 40.3872 83.7359C40.3872 83.9648 40.2878 84.1844 40.1108 84.3463C39.9339 84.5082 39.6939 84.5991 39.4436 84.5991V84.5991Z" fill="#55508B"/>
<path d="M35.2216 90.3828H32.9065C32.1023 90.3833 31.3132 90.1833 30.624 89.8044C30.5218 89.7498 30.4427 89.6655 30.3993 89.5648C30.3559 89.4642 30.3507 89.3531 30.3847 89.2494C30.4157 89.143 30.4844 89.049 30.5801 88.982C30.6758 88.9151 30.793 88.8791 30.9134 88.8796H37.2148C37.3352 88.8791 37.4524 88.9151 37.5481 88.982C37.6437 89.049 37.7125 89.143 37.7435 89.2494C37.7775 89.3531 37.7723 89.4642 37.7289 89.5648C37.6855 89.6655 37.6063 89.7499 37.5041 89.8044C36.8149 90.1834 36.0258 90.3833 35.2216 90.3828V90.3828Z" fill="#55508B"/>
<path d="M39.4454 87.3259L28.6242 87.3248L28.5907 87.2591C28.5588 87.1382 28.5575 87.0122 28.5869 86.8908C28.6163 86.7693 28.6757 86.6556 28.7605 86.5584C28.8465 86.4587 28.9561 86.3782 29.0811 86.3229C29.2061 86.2676 29.3432 86.239 29.482 86.2393H38.6461C38.785 86.239 38.9221 86.2676 39.0471 86.3229C39.1721 86.3782 39.2817 86.4588 39.3677 86.5585C39.4517 86.6544 39.5109 86.7665 39.5407 86.8863C39.5705 87.0062 39.5701 87.1307 39.5396 87.2504L39.5226 87.3171L39.4454 87.3259Z" fill="#55508B"/>
<path d="M9.03976 25.1052C8.81166 25.1054 8.59124 25.0297 8.41961 24.8923L0.315887 18.4212C0.130247 18.2699 0.0173705 18.0577 0.0017942 17.8307C-0.013782 17.6037 0.0692014 17.3803 0.232703 17.2089C0.396205 17.0376 0.627013 16.9322 0.874976 16.9157C1.12294 16.8991 1.36802 16.9728 1.55695 17.1206L9.66067 23.5917C9.80541 23.7073 9.90815 23.8605 9.95515 24.0309C10.0021 24.2014 9.99115 24.3808 9.92365 24.5454C9.85615 24.7099 9.73535 24.8517 9.5774 24.9518C9.41945 25.0518 9.23189 25.1054 9.03976 25.1053V25.1052Z" fill="#EFC636"/>
<path d="M57.7459 25.1051C57.5538 25.1052 57.3662 25.0516 57.2083 24.9516C57.0503 24.8515 56.9295 24.7097 56.862 24.5452C56.7945 24.3806 56.7836 24.2011 56.8305 24.0307C56.8775 23.8603 56.9803 23.7071 57.125 23.5915L65.2285 17.1199C65.4175 16.9721 65.6625 16.8984 65.9105 16.9149C66.1585 16.9315 66.3893 17.0369 66.5528 17.2082C66.7163 17.3795 66.7993 17.603 66.7837 17.83C66.7681 18.057 66.6552 18.2692 66.4696 18.4205L58.3659 24.8916C58.1944 25.0292 57.9741 25.1051 57.7459 25.1051Z" fill="#EFC636"/>
<path d="M42.1326 81.5355H25.9965C25.7462 81.5355 25.5062 81.4445 25.3292 81.2826C25.1523 81.1207 25.0529 80.9012 25.0529 80.6722C25.0529 80.4433 25.1523 80.2237 25.3292 80.0618C25.5062 79.8999 25.7462 79.809 25.9965 79.809H42.1326C42.3829 79.809 42.6229 79.8999 42.7998 80.0618C42.9768 80.2237 43.0762 80.4433 43.0762 80.6722C43.0762 80.9012 42.9768 81.1207 42.7998 81.2826C42.6229 81.4445 42.3829 81.5355 42.1326 81.5355V81.5355Z" fill="#55508B"/>
<path d="M33.6684 58.9839L30.3128 77.4349H28.3973L31.8057 58.7007C31.8467 58.4747 31.9842 58.2729 32.1879 58.1397C32.3916 58.0065 32.6448 57.9527 32.8918 57.9903C33.1388 58.0278 33.3594 58.1536 33.505 58.3399C33.6507 58.5263 33.7094 58.7579 33.6684 58.9839V58.9839Z" fill="#444444"/>
<path d="M40.1172 77.4349H38.2016L34.846 58.9839C34.805 58.7579 34.8637 58.5263 35.0094 58.3399C35.155 58.1536 35.3756 58.0278 35.6226 57.9903C35.8696 57.9527 36.1229 58.0065 36.3265 58.1397C36.5302 58.2729 36.6677 58.4747 36.7088 58.7007L40.1172 77.4349Z" fill="#444444"/>
<path d="M27.9319 58.3675C27.9319 58.1386 28.0314 57.919 28.2083 57.7571C28.3853 57.5952 28.6253 57.5043 28.8756 57.5043H39.2542C39.5045 57.5043 39.7445 57.5952 39.9215 57.7571C40.0984 57.919 40.1978 58.1386 40.1978 58.3675C40.1978 58.5965 40.0984 58.816 39.9215 58.9779C39.7445 59.1398 39.5045 59.2308 39.2542 59.2308H28.8756C28.6253 59.2308 28.3853 59.1398 28.2083 58.9779C28.0314 58.816 27.9319 58.5965 27.9319 58.3675V58.3675Z" fill="#444444"/>
<path d="M34.0649 16.488C33.8146 16.488 33.5746 16.3971 33.3977 16.2352C33.2207 16.0733 33.1213 15.8537 33.1213 15.6248V0.863247C33.1213 0.6343 33.2207 0.41473 33.3977 0.252839C33.5746 0.090949 33.8146 0 34.0649 0C34.3152 0 34.5552 0.090949 34.7322 0.252839C34.9091 0.41473 35.0085 0.6343 35.0085 0.863247V15.6248C35.0085 15.8537 34.9091 16.0733 34.7322 16.2352C34.5552 16.3971 34.3152 16.488 34.0649 16.488V16.488Z" fill="#EFC636"/>
</svg>
