<svg width="50" height="48" viewBox="0 0 50 48" fill="none" xmlns="http://www.w3.org/2000/svg">
<path d="M24.7845 0C17.9598 0 12.1228 2.30533 7.27371 6.91598C2.42457 11.5266 0 17.0765 0 23.5656C0 30.0546 2.42457 35.6045 7.27371 40.2152C12.1228 44.8258 17.9598 47.1311 24.7845 47.1311C31.6092 47.1311 37.4461 44.8258 42.2953 40.2152C47.1444 35.6045 49.569 30.0546 49.569 23.5656C49.569 17.0765 47.1444 11.5266 42.2953 6.91598C37.4461 2.30533 31.6092 0 24.7845 0ZM39.9784 12.1926C42.6365 15.3347 44.0014 18.8525 44.0733 22.7459C41.2715 22.1311 38.6494 21.8238 36.2069 21.8238C34.4109 21.8238 32.5431 21.9945 30.6034 22.3361C30.3161 21.653 29.8851 20.6967 29.3103 19.4672C33.6207 17.623 37.1767 15.1981 39.9784 12.1926ZM24.7845 5.12295C29.2385 5.12295 33.2615 6.48907 36.8534 9.22131C34.6983 11.7486 31.5374 13.9003 27.3707 15.6762C25.5029 12.2609 23.2759 8.91393 20.6897 5.63525C22.1264 5.29372 23.4914 5.12295 24.7845 5.12295ZM16.2716 7.06967C18.8578 10.1434 21.1566 13.4904 23.1681 17.1107C18.2112 18.4768 13.1106 19.1598 7.86638 19.1598H7.5431C6.82471 19.1598 6.32184 19.1257 6.03448 19.0574C7.39942 13.5929 10.8118 9.59699 16.2716 7.06967ZM5.38793 23.5656V23.2582C5.74713 23.3265 6.46552 23.3607 7.5431 23.3607C14.0086 23.3607 19.8635 22.541 25.1078 20.9016C25.2514 21.1749 25.449 21.5847 25.7004 22.1311C25.9519 22.6776 26.1494 23.0874 26.2931 23.3607C22.1983 24.6585 18.5345 26.7076 15.3017 29.5082C13.0029 31.4891 11.2428 33.4699 10.0216 35.4508C6.93247 31.9672 5.38793 28.0055 5.38793 23.5656ZM24.7845 42.0082C20.4741 42.0082 16.6307 40.7787 13.2543 38.3197C14.9066 36.0656 16.4152 34.3238 17.7802 33.0943C20.6537 30.4303 23.9943 28.4836 27.8017 27.2541C29.3103 31.2158 30.6034 35.724 31.681 40.7787C29.5259 41.5984 27.227 42.0082 24.7845 42.0082ZM35.7759 38.7295C34.9856 34.9727 33.8003 30.8402 32.2198 26.332C33.4411 26.127 34.7342 26.0246 36.0991 26.0246H36.2069C38.5057 26.0246 41.0201 26.332 43.75 26.9467C42.8879 31.7964 40.2299 35.724 35.7759 38.7295Z" fill="#222222"/>
</svg>
