<svg width="50" height="48" viewBox="0 0 50 48" fill="none" xmlns="http://www.w3.org/2000/svg">
<path d="M24.785 0C17.9601 0 12.1231 2.30527 7.27386 6.91582C2.42462 11.5264 0 17.0761 0 23.565C0 30.0539 2.42462 35.6036 7.27386 40.2142C12.1231 44.8247 17.9601 47.13 24.785 47.13C31.6099 47.13 37.4469 44.8247 42.2961 40.2142C47.1454 35.6036 49.57 30.0539 49.57 23.565C49.57 17.0761 47.1454 11.5264 42.2961 6.91582C37.4469 2.30527 31.6099 0 24.785 0ZM39.9793 12.1923C42.6374 15.3343 44.0024 18.852 44.0742 22.7453C41.2724 22.1306 38.6502 21.8232 36.2077 21.8232C34.4116 21.8232 32.5438 21.994 30.6041 22.3355C30.3167 21.6525 29.8857 20.6962 29.311 19.4667C33.6214 17.6225 37.1775 15.1977 39.9793 12.1923ZM24.785 5.12283C29.2391 5.12283 33.2622 6.48891 36.8542 9.22109C34.699 11.7483 31.538 13.8999 27.3713 15.6758C25.5034 12.2606 23.2763 8.91372 20.6901 5.63511C22.1269 5.29359 23.4919 5.12283 24.785 5.12283ZM16.2719 7.0695C18.8582 10.1432 21.1571 13.4901 23.1686 17.1102C18.2116 18.4763 13.1109 19.1594 7.86654 19.1594H7.54326C6.82486 19.1594 6.32197 19.1252 6.03461 19.0569C7.39958 13.5926 10.812 9.59676 16.2719 7.0695ZM5.38804 23.565V23.2576C5.74725 23.3259 6.46565 23.3601 7.54326 23.3601C14.0089 23.3601 19.8639 22.5404 25.1083 20.9011C25.252 21.1743 25.4495 21.5842 25.701 22.1306C25.9524 22.677 26.15 23.0869 26.2937 23.3601C22.1987 24.6579 18.5349 26.707 15.302 29.5075C13.0031 31.4883 11.2431 33.4691 10.0218 35.45C6.93262 31.9664 5.38804 28.0048 5.38804 23.565ZM24.785 42.0072C20.4746 42.0072 16.6311 40.7777 13.2546 38.3187C14.9069 36.0647 16.4156 34.3229 17.7805 33.0935C20.6542 30.4296 23.9948 28.4829 27.8023 27.2534C29.311 31.2151 30.6041 35.7232 31.6817 40.7777C29.5265 41.5973 27.2276 42.0072 24.785 42.0072ZM35.7766 38.7286C34.9864 34.9718 33.801 30.8394 32.2205 26.3313C33.4418 26.1264 34.7349 26.024 36.0999 26.024H36.2077C38.5066 26.024 41.021 26.3313 43.7509 26.9461C42.8888 31.7957 40.2307 35.7232 35.7766 38.7286Z" fill="#D9D9D9"/>
</svg>
