<svg width="56" height="56" viewBox="0 0 56 56" fill="none" xmlns="http://www.w3.org/2000/svg">
<path d="M27.9781 4.17285C14.4539 4.16738 3.5 15.1158 3.5 28.6291C3.5 39.315 10.3523 48.3986 19.8953 51.7346C21.1805 52.0572 20.9836 51.1439 20.9836 50.5205V46.2822C13.5625 47.1518 13.2617 42.2408 12.7641 41.4205C11.7578 39.7033 9.37891 39.2658 10.0898 38.4455C11.7797 37.576 13.5023 38.6643 15.4984 41.6119C16.9422 43.7502 19.7586 43.3893 21.1859 43.0338C21.4977 41.7486 22.1648 40.6002 23.0836 39.7088C15.3945 38.3307 12.1898 33.6385 12.1898 28.0604C12.1898 25.3533 13.0813 22.865 14.8313 20.858C13.7156 17.5494 14.9352 14.7166 15.0992 14.2955C18.2766 14.0111 21.5797 16.5705 21.8367 16.7729C23.6414 16.2861 25.7031 16.0291 28.0109 16.0291C30.3297 16.0291 32.3969 16.2971 34.218 16.7893C34.8359 16.3189 37.8984 14.1205 40.8516 14.3885C41.0102 14.8096 42.2023 17.5768 41.1523 20.8416C42.9242 22.8541 43.8266 25.3643 43.8266 28.0768C43.8266 33.6658 40.6 38.3635 32.8891 39.7197C33.5495 40.3692 34.0739 41.1439 34.4317 41.9983C34.7894 42.8528 34.9733 43.77 34.9727 44.6963V50.8486C35.0164 51.3408 34.9727 51.8275 35.793 51.8275C45.4781 48.5627 52.4508 39.4135 52.4508 28.6346C52.4508 15.1158 41.4914 4.17285 27.9781 4.17285V4.17285Z" fill="#D9D9D9"/>
</svg>
