<svg width="56" height="56" viewBox="0 0 56 56" fill="none" xmlns="http://www.w3.org/2000/svg">
<path fill-rule="evenodd" clip-rule="evenodd" d="M28.0001 3.50015C22.1835 3.50093 16.557 5.57106 12.127 9.34024C7.697 13.1094 4.75247 18.3317 3.82014 24.073C2.88781 29.8143 4.02851 35.7001 7.03819 40.6774C10.0479 45.6547 14.7302 49.3989 20.2476 51.2401C21.4726 51.4676 21.9976 50.7151 21.9976 50.0676V45.9026C15.1901 47.3726 13.7551 42.6126 13.7551 42.6126C13.2763 41.1126 12.2688 39.8376 10.9201 39.0251C8.69755 37.5201 11.0951 37.5376 11.0951 37.5376C11.8714 37.6473 12.6123 37.9329 13.2614 38.3727C13.9105 38.8125 14.4504 39.3948 14.8401 40.0751C15.5179 41.2909 16.6508 42.1877 17.9898 42.5684C19.3287 42.9491 20.764 42.7825 21.9801 42.1051C22.0789 40.8635 22.6263 39.7002 23.5201 38.8326C18.0951 38.2026 12.3726 36.1026 12.3726 26.7226C12.3329 24.2865 13.2357 21.9291 14.8926 20.1426C14.1426 18.0325 14.2303 15.7151 15.1376 13.6676C15.1376 13.6676 17.1851 13.0026 21.8751 16.1701C25.8851 15.0763 30.115 15.0763 34.1251 16.1701C38.7976 13.0026 40.8451 13.6676 40.8451 13.6676C41.7523 15.7151 41.84 18.0325 41.0901 20.1426C42.7469 21.9291 43.6497 24.2865 43.6101 26.7226C43.6101 36.1376 37.8876 38.2026 32.4276 38.8151C33.0124 39.408 33.4635 40.1193 33.7502 40.9011C34.037 41.683 34.1529 42.5172 34.0901 43.3476V50.0676C34.0901 50.8726 34.5276 51.4851 35.8401 51.2401C41.3647 49.3965 46.0518 45.6452 49.061 40.6587C52.0703 35.6722 53.2047 29.7768 52.2609 24.0297C51.317 18.2826 48.3568 13.0597 43.9108 9.29749C39.4649 5.53533 33.8241 3.48003 28.0001 3.50015V3.50015Z" fill="#222222"/>
</svg>
