<svg width="60" height="60" viewBox="0 0 60 60" fill="none" xmlns="http://www.w3.org/2000/svg">
<g clip-path="url(#clip0_424_10)">
<path d="M43.295 0.1925C46.34 0.3325 48.445 0.78 50.39 1.535C52.2342 2.22453 53.9038 3.31198 55.28 4.72C56.688 6.09622 57.7755 7.76581 58.465 9.61C59.22 11.5575 59.6675 13.66 59.8075 16.705C59.98 20.48 60 21.81 60 30C60 38.19 59.98 39.52 59.8075 43.295C59.6675 46.34 59.22 48.445 58.465 50.3925C57.7751 52.2358 56.6877 53.9045 55.28 55.28C53.9038 56.6881 52.2342 57.7755 50.39 58.465C48.4425 59.22 46.34 59.6675 43.295 59.8075C39.52 59.98 38.1925 60 30 60C21.8075 60 20.4775 59.98 16.705 59.8075C13.66 59.6675 11.555 59.22 9.6075 58.465C7.76416 57.7752 6.09544 56.6878 4.72 55.28C3.31198 53.9038 2.22453 52.2342 1.535 50.39C0.78 48.4425 0.3325 46.34 0.1925 43.295C0.02 39.525 0 38.195 0 30C0 21.8075 0.02 20.475 0.1925 16.705C0.3325 13.66 0.78 11.555 1.535 9.61C2.22453 7.76581 3.31198 6.09622 4.72 4.72C6.09549 3.31228 7.7642 2.22485 9.6075 1.535C11.5575 0.78 13.66 0.3325 16.705 0.1925C20.475 0.02 21.805 0 30 0C38.1925 0 39.525 0.02 43.295 0.1925ZM30 6.6675C21.9 6.6675 20.66 6.685 17.0075 6.8525C14.69 6.9575 13.3 7.2525 12.0225 7.75C11.0419 8.10556 10.1559 8.68113 9.4325 9.4325C8.67953 10.1546 8.1037 11.041 7.75 12.0225C7.255 13.2975 6.9575 14.69 6.8525 17.0075C6.685 20.66 6.6675 21.9 6.6675 30C6.6675 38.1 6.685 39.34 6.8525 42.9925C6.9575 45.31 7.2525 46.7 7.75 47.975C8.175 49.065 8.625 49.7575 9.4325 50.5675C10.2425 51.3775 10.935 51.8275 12.0225 52.25C13.2975 52.745 14.69 53.0425 17.0075 53.1475C20.6625 53.315 21.9025 53.3325 30 53.3325C38.1 53.3325 39.3375 53.315 42.9925 53.1475C45.31 53.0425 46.7 52.7475 47.9775 52.25C48.9581 51.8944 49.8441 51.3189 50.5675 50.5675C51.3775 49.7575 51.8275 49.065 52.25 47.9775C52.745 46.7025 53.0425 45.31 53.1475 42.9925C53.315 39.3375 53.3325 38.0975 53.3325 30C53.3325 21.9025 53.315 20.6625 53.1475 17.0075C53.0425 14.69 52.7475 13.3 52.25 12.025C51.8965 11.0427 51.3207 10.1554 50.5675 9.4325C49.8446 8.67928 48.9573 8.10344 47.975 7.75C46.7 7.255 45.3075 6.9575 42.99 6.8525C39.3375 6.685 38.0975 6.6675 29.9975 6.6675H30ZM30 45.555C25.8746 45.555 21.9181 43.9162 19.001 40.999C16.0838 38.0819 14.445 34.1254 14.445 30C14.445 25.8746 16.0838 21.9181 19.001 19.001C21.9181 16.0838 25.8746 14.445 30 14.445C34.1254 14.445 38.0819 16.0838 40.999 19.001C43.9162 21.9181 45.555 25.8746 45.555 30C45.555 34.1254 43.9162 38.0819 40.999 40.999C38.0819 43.9162 34.1254 45.555 30 45.555ZM30 38.89C32.3578 38.89 34.619 37.9534 36.2862 36.2862C37.9534 34.619 38.89 32.3578 38.89 30C38.89 27.6422 37.9534 25.381 36.2862 23.7138C34.619 22.0466 32.3578 21.11 30 21.11C27.6422 21.11 25.381 22.0466 23.7138 23.7138C22.0466 25.381 21.11 27.6422 21.11 30C21.11 32.3578 22.0466 34.619 23.7138 36.2862C25.381 37.9534 27.6422 38.89 30 38.89ZM45.555 17.7775C44.6708 17.7775 43.8229 17.4263 43.1977 16.8011C42.5725 16.1759 42.2213 15.3279 42.2213 14.4438C42.2213 13.5596 42.5725 12.7116 43.1977 12.0864C43.8229 11.4612 44.6708 11.11 45.555 11.11C46.4392 11.11 47.2871 11.4612 47.9123 12.0864C48.5375 12.7116 48.8888 13.5596 48.8888 14.4438C48.8888 15.3279 48.5375 16.1759 47.9123 16.8011C47.2871 17.4263 46.4392 17.7775 45.555 17.7775Z" fill="#D9D9D9"/>
</g>
<defs>
<clipPath id="clip0_424_10">
<rect width="60" height="60" fill="white"/>
</clipPath>
</defs>
</svg>
