<svg width="46" height="53" viewBox="0 0 46 53" fill="none" xmlns="http://www.w3.org/2000/svg">
<g clip-path="url(#clip0_314_15)">
<path d="M23 20.9785C21.9169 20.9789 20.8582 21.3031 19.9578 21.91C19.0574 22.517 18.3557 23.3795 17.9415 24.3884C17.5273 25.3974 17.4191 26.5075 17.6307 27.5785C17.8422 28.6494 18.364 29.633 19.13 30.405C19.8961 31.177 20.872 31.7027 21.9343 31.9156C22.9967 32.1285 24.0978 32.019 25.0984 31.601C26.0991 31.1831 26.9543 30.4753 27.5561 29.5674C28.1578 28.6594 28.4789 27.592 28.4789 26.5C28.4778 25.0356 27.9002 23.6315 26.8729 22.5962C25.8455 21.5609 24.4526 20.979 23 20.9785V20.9785ZM35.805 16.7343C35.5262 16.022 35.1052 15.375 34.5681 14.8335C34.0309 14.292 33.3892 13.8675 32.6826 13.5864C30.5263 12.7283 25.3924 12.9208 23 12.9208C20.6076 12.9208 15.4788 12.721 13.3164 13.5864C12.6098 13.8675 11.968 14.292 11.4309 14.8335C10.8938 15.375 10.4727 16.022 10.1939 16.7343C9.34375 18.9082 9.53371 24.0891 9.53371 26.499C9.53371 28.9088 9.34375 34.0836 10.198 36.2646C10.4769 36.977 10.8979 37.624 11.435 38.1655C11.9721 38.707 12.6139 39.1314 13.3205 39.4125C15.4767 40.2707 20.6107 40.0781 23.0041 40.0781C25.3975 40.0781 30.5243 40.2779 32.6867 39.4125C33.3933 39.1314 34.0351 38.707 34.5722 38.1655C35.1093 37.624 35.5303 36.977 35.8092 36.2646C36.6665 34.0908 36.4694 28.9098 36.4694 26.5C36.4694 24.0902 36.6665 18.9164 35.8092 16.7354L35.805 16.7343ZM23 34.9883C21.3348 34.9883 19.7069 34.4905 18.3223 33.5577C16.9377 32.625 15.8585 31.2994 15.2213 29.7483C14.584 28.1973 14.4173 26.4906 14.7421 24.844C15.067 23.1975 15.8689 21.685 17.0464 20.4979C18.2239 19.3108 19.7242 18.5023 21.3574 18.1748C22.9907 17.8473 24.6836 18.0154 26.2221 18.6579C27.7605 19.3003 29.0755 20.3883 30.0007 21.7842C30.9258 23.1801 31.4196 24.8212 31.4196 26.5C31.421 27.6151 31.2041 28.7195 30.7815 29.7499C30.3588 30.7804 29.7387 31.7167 28.9566 32.5052C28.1745 33.2936 27.2458 33.9188 26.2237 34.3449C25.2015 34.771 24.1061 34.9896 23 34.9883V34.9883ZM31.7667 19.6369C31.378 19.6371 30.9979 19.5211 30.6746 19.3035C30.3513 19.0859 30.0992 18.7766 29.9503 18.4145C29.8014 18.0525 29.7623 17.6541 29.838 17.2697C29.9138 16.8853 30.1008 16.5322 30.3757 16.255C30.6505 15.9778 31.0006 15.789 31.3819 15.7125C31.7631 15.6359 32.1583 15.6751 32.5175 15.8251C32.8767 15.975 33.1837 16.2289 33.3997 16.5548C33.6157 16.8806 33.7309 17.2637 33.7309 17.6556C33.732 17.9159 33.6821 18.1738 33.5841 18.4146C33.4861 18.6553 33.3419 18.8742 33.1598 19.0587C32.9777 19.2431 32.7613 19.3895 32.5229 19.4895C32.2845 19.5894 32.029 19.6409 31.7708 19.6411L31.7667 19.6369ZM41.0714 3.3125H4.92857C3.62143 3.3125 2.36783 3.83599 1.44355 4.76781C0.519259 5.69963 0 6.96346 0 8.28125L0 44.7188C0 46.0365 0.519259 47.3004 1.44355 48.2322C2.36783 49.164 3.62143 49.6875 4.92857 49.6875H41.0714C42.3786 49.6875 43.6322 49.164 44.5565 48.2322C45.4807 47.3004 46 46.0365 46 44.7188V8.28125C46 6.96346 45.4807 5.69963 44.5565 4.76781C43.6322 3.83599 42.3786 3.3125 41.0714 3.3125V3.3125ZM39.3136 33.332C39.1811 35.9851 38.5804 38.336 36.6593 40.2676C34.7382 42.1992 32.4084 42.8172 29.7799 42.9435C27.0681 43.0977 18.938 43.0977 16.2263 42.9435C13.5946 42.8099 11.271 42.2033 9.34683 40.2676C7.42263 38.3318 6.81786 35.98 6.69259 33.332C6.5396 30.5971 6.5396 22.3997 6.69259 19.668C6.82504 17.0149 7.41853 14.664 9.34683 12.7324C11.2751 10.8008 13.6049 10.1901 16.2263 10.0638C18.938 9.90955 27.0681 9.90955 29.7799 10.0638C32.4115 10.1973 34.7423 10.8039 36.6593 12.7397C38.5763 14.6754 39.1883 17.0273 39.3136 19.6804C39.4666 22.4049 39.4666 30.5951 39.3136 33.332Z" fill="#D9D9D9"/>
</g>
<defs>
<clipPath id="clip0_314_15">
<rect width="46" height="53" fill="white"/>
</clipPath>
</defs>
</svg>
