<svg width="46" height="46" viewBox="0 0 46 46" fill="none" xmlns="http://www.w3.org/2000/svg">
<path d="M23 17.5231C21.9169 17.5235 20.8582 17.8451 19.9578 18.4471C19.0574 19.0492 18.3557 19.9047 17.9415 20.9055C17.5273 21.9063 17.4191 23.0075 17.6307 24.0697C17.8422 25.132 18.364 26.1077 19.13 26.8735C19.8961 27.6392 20.872 28.1606 21.9343 28.3718C22.9967 28.583 24.0978 28.4744 25.0984 28.0598C26.0991 27.6452 26.9543 26.9432 27.5561 26.0426C28.1578 25.142 28.4789 24.0831 28.4789 23C28.4778 21.5474 27.9002 20.1547 26.8729 19.1277C25.8455 18.1008 24.4526 17.5237 23 17.5231V17.5231ZM35.805 13.3133C35.5262 12.6067 35.1052 11.9649 34.5681 11.4278C34.0309 10.8907 33.3892 10.4697 32.6826 10.1908C30.5263 9.33964 25.3924 9.53063 23 9.53063C20.6076 9.53063 15.4788 9.33246 13.3164 10.1908C12.6098 10.4697 11.968 10.8907 11.4309 11.4278C10.8938 11.9649 10.4727 12.6067 10.1939 13.3133C9.34375 15.4696 9.53371 20.6086 9.53371 22.999C9.53371 25.3893 9.34375 30.5222 10.198 32.6857C10.4769 33.3923 10.8979 34.034 11.435 34.5712C11.9721 35.1083 12.6139 35.5293 13.3205 35.8081C15.4767 36.6593 20.6107 36.4684 23.0041 36.4684C25.3975 36.4684 30.5243 36.6665 32.6867 35.8081C33.3933 35.5293 34.0351 35.1083 34.5722 34.5712C35.1093 34.034 35.5303 33.3923 35.8092 32.6857C36.6665 30.5294 36.4694 25.3904 36.4694 23C36.4694 20.6096 36.6665 15.4778 35.8092 13.3143L35.805 13.3133ZM23 31.4196C21.3348 31.4196 19.7069 30.9258 18.3223 30.0007C16.9377 29.0755 15.8585 27.7605 15.2213 26.2221C14.584 24.6836 14.4173 22.9907 14.7421 21.3574C15.067 19.7242 15.8689 18.2239 17.0464 17.0464C18.2239 15.8689 19.7242 15.067 21.3574 14.7421C22.9907 14.4173 24.6836 14.584 26.2221 15.2213C27.7605 15.8585 29.0755 16.9377 30.0007 18.3223C30.9258 19.7069 31.4196 21.3348 31.4196 23C31.421 24.1061 31.2041 25.2015 30.7815 26.2237C30.3588 27.2458 29.7387 28.1745 28.9566 28.9566C28.1745 29.7387 27.2458 30.3588 26.2237 30.7815C25.2015 31.2041 24.1061 31.421 23 31.4196V31.4196ZM31.7667 16.1924C31.378 16.1926 30.9979 16.0775 30.6746 15.8617C30.3513 15.6459 30.0992 15.339 29.9503 14.9799C29.8014 14.6208 29.7623 14.2257 29.838 13.8444C29.9138 13.4631 30.1008 13.1128 30.3757 12.8379C30.6505 12.5629 31.0006 12.3756 31.3819 12.2997C31.7631 12.2238 32.1583 12.2627 32.5175 12.4114C32.8767 12.5601 33.1837 12.812 33.3997 13.1352C33.6157 13.4584 33.7309 13.8384 33.7309 14.2271C33.732 14.4853 33.6821 14.7411 33.5841 14.9799C33.4861 15.2188 33.3419 15.4359 33.1598 15.6188C32.9777 15.8018 32.7613 15.947 32.5229 16.0462C32.2845 16.1453 32.029 16.1964 31.7708 16.1965L31.7667 16.1924ZM41.0714 0H4.92857C3.62143 0 2.36783 0.519259 1.44355 1.44355C0.519259 2.36783 0 3.62143 0 4.92857L0 41.0714C0 42.3786 0.519259 43.6322 1.44355 44.5565C2.36783 45.4807 3.62143 46 4.92857 46H41.0714C42.3786 46 43.6322 45.4807 44.5565 44.5565C45.4807 43.6322 46 42.3786 46 41.0714V4.92857C46 3.62143 45.4807 2.36783 44.5565 1.44355C43.6322 0.519259 42.3786 0 41.0714 0V0ZM39.3136 29.7768C39.1811 32.4084 38.5804 34.7403 36.6593 36.6563C34.7382 38.5722 32.4084 39.1852 29.7799 39.3105C27.0681 39.4635 18.938 39.4635 16.2263 39.3105C13.5946 39.178 11.271 38.5763 9.34683 36.6563C7.42263 34.7362 6.81786 32.4033 6.69259 29.7768C6.5396 27.064 6.5396 18.9329 6.69259 16.2232C6.82504 13.5916 7.41853 11.2597 9.34683 9.34375C11.2751 7.42777 13.6049 6.82196 16.2263 6.6967C18.938 6.54371 27.0681 6.54371 29.7799 6.6967C32.4115 6.82915 34.7423 7.43085 36.6593 9.35094C38.5763 11.271 39.1883 13.6039 39.3136 16.2355C39.4666 18.938 39.4666 27.062 39.3136 29.7768Z" fill="#222222"/>
</svg>
